<svg id="dislike" xmlns="http://www.w3.org/2000/svg" width="24" height="22.5" viewBox="0 0 24 22.5">
  <path id="Path_1" data-name="Path 1" d="M22.25,16h-2.5A1.752,1.752,0,0,1,18,14.25V2.75A1.752,1.752,0,0,1,19.75,1h2.5A1.752,1.752,0,0,1,24,2.75v11.5A1.752,1.752,0,0,1,22.25,16Z" transform="translate(0 6.25)"/>
  <path id="Path_2" data-name="Path 2" d="M5.119,23.25a3.993,3.993,0,0,1-3.94-3.32l-1.12-6.5A4,4,0,0,1,4,8.75h4.72a9.656,9.656,0,0,1-.75-4,3.672,3.672,0,0,1,3.25-4c1,0,1.5.5,1.5,3,0,2.376,2.3,4.288,3.781,5.273V21.411A23.308,23.308,0,0,1,6.719,23.25Z" transform="translate(0 -0.75)"/>
</svg>
