<svg xmlns="http://www.w3.org/2000/svg" width="24" height="24" viewBox="0 0 24 24">
  <path id="dislike_1_" data-name="dislike (1)" d="M22.25,24h-2.5A1.752,1.752,0,0,1,18,22.25v-.366A23.257,23.257,0,0,1,7.469,24h-1.6a4.738,4.738,0,0,1-4.68-3.942l-1.12-6.5A4.748,4.748,0,0,1,4.749,8H9.285a9.33,9.33,0,0,1-.566-3.25C8.719.993,10.845,0,11.969,0c2.076,0,2.25,1.936,2.25,3.75,0,2.214,2.483,4.054,3.794,4.872A1.747,1.747,0,0,1,19.75,7h2.5A1.752,1.752,0,0,1,24,8.75v13.5A1.752,1.752,0,0,1,22.25,24ZM12.719,3.75c0-2.25-.381-2.25-.75-2.25-.7,0-1.75.866-1.75,3.25a7.1,7.1,0,0,0,.874,3.584A.75.75,0,0,1,10.469,9.5H4.749a3.247,3.247,0,0,0-3.2,3.8l1.12,6.5a3.241,3.241,0,0,0,3.2,2.7h1.6c6.8,0,10.211-2.128,10.531-2.339v-9.81C17.167,9.909,12.719,7.379,12.719,3.75Zm9.781,5a.25.25,0,0,0-.25-.25h-2.5a.25.25,0,0,0-.25.25v13.5a.253.253,0,0,0,.25.25h2.5a.25.25,0,0,0,.25-.25Z" transform="translate(0)"/>
</svg>
